<?xml version="1.0" encoding="utf-8"?>
<!-- Generator: Adobe Illustrator 26.0.0, SVG Export Plug-In . SVG Version: 6.00 Build 0)  -->
<svg version="1.1" xmlns="http://www.w3.org/2000/svg" xmlns:xlink="http://www.w3.org/1999/xlink" x="0px" y="0px"
	 viewBox="0 0 243.78 153.07" style="enable-background:new 0 0 243.78 153.07;" xml:space="preserve">
<style type="text/css">
	.st0{fill:#1C75BC;stroke:#1C75BC;stroke-width:0.9314;stroke-miterlimit:10;}
	.st1{clip-path:url(#SVGID_00000135688385208231840680000011365456698732488125_);}
	.st2{fill:#1969A9;stroke:#1C75BC;stroke-width:0.9788;stroke-miterlimit:10;}
	.st3{fill:#FFFFFF;}
	.st4{fill:#FFFFFF;stroke:#000000;stroke-width:0.9153;stroke-linejoin:round;stroke-miterlimit:10;}
	.st5{fill:#1C75BC;stroke:#FFFFFF;stroke-miterlimit:10;}
	.st6{fill:#FFFFFF;stroke:#FFFFFF;stroke-miterlimit:10;}
	.st7{fill:none;stroke:#FFFFFF;stroke-width:2.9794;stroke-linecap:round;stroke-miterlimit:10;}
	.st8{fill:none;stroke:#FFFFFF;stroke-linecap:round;stroke-linejoin:round;stroke-miterlimit:10;}
	.st9{fill:#1C75BC;stroke:#FFFFFF;stroke-width:2.9794;stroke-miterlimit:10;}
	.st10{fill:#FFFFFF;stroke:#FFFFFF;stroke-width:2.9794;stroke-miterlimit:10;}
	.st11{fill:#1C75BC;stroke:#1C75BC;stroke-width:2.9794;stroke-miterlimit:10;}
	.st12{opacity:0.15;clip-path:url(#SVGID_00000083062494564555935750000017711620082838604961_);}
	.st13{fill:#FFFFFF;stroke:#000000;stroke-width:2.2641;stroke-miterlimit:10;}
	.st14{fill:#FFFFFF;stroke:#FFFFFF;stroke-width:2.7272;stroke-miterlimit:10;}
	.st15{fill:none;stroke:#1C75BC;stroke-width:2.7272;stroke-linecap:round;stroke-miterlimit:10;}
	.st16{fill:none;stroke:#1C75BC;stroke-width:1.8516;stroke-linecap:round;stroke-linejoin:round;stroke-miterlimit:10;}
	.st17{fill:#FFFFFF;stroke:#000000;stroke-width:1.3585;stroke-linecap:round;stroke-miterlimit:10;}
	.st18{fill:#1C75BC;stroke:#1C75BC;stroke-width:2.7272;stroke-miterlimit:10;}
	.st19{stroke:#000000;stroke-width:2.2641;stroke-miterlimit:10;}
	.st20{fill:#FFFFFF;stroke:#FFFFFF;stroke-width:2.2641;stroke-miterlimit:10;}
	.st21{fill:none;stroke:#000000;stroke-width:2.2641;stroke-linecap:round;stroke-miterlimit:10;}
	.st22{fill:#1C75BC;}
	.st23{fill:#FFFFFF;stroke:#000000;stroke-width:2.2641;stroke-linecap:round;stroke-miterlimit:10;}
</style>
<g id="Layer_3">
</g>
<g id="Layer_1">
	<rect x="-0.71" class="st0" width="244.49" height="153.07"/>
	<g>
		<defs>
			<rect id="SVGID_1_" x="3.49" width="236.09" height="153.07"/>
		</defs>
		<clipPath id="SVGID_00000127742780655317263980000008255607371014833024_">
			<use xlink:href="#SVGID_1_"  style="overflow:visible;"/>
		</clipPath>
		<g style="clip-path:url(#SVGID_00000127742780655317263980000008255607371014833024_);">
			<g>
				<path class="st2" d="M153.36,188.06c-23.47-16.71-80.82-49.78-165.4-48.23l-0.58-26.39c0,0,113.47,14.5,168.3,72.44
					C156.97,187.26,154.93,189.18,153.36,188.06z"/>
				<path class="st2" d="M22.65,116.48c0,0,57.15,12.05,131.33,71.6c1.13,0.91,2.74-0.41,1.85-1.51
					c-14.71-18.27-59.66-70.21-133.68-92.68L22.65,116.48z"/>
			</g>
			<g>
				<path class="st2" d="M89.69,188.06c23.47-16.71,80.82-49.78,165.4-48.23l0.58-26.39c0,0-113.47,14.5-168.3,72.44
					C86.08,187.26,88.12,189.18,89.69,188.06z"/>
				<path class="st2" d="M220.4,116.48c0,0-57.15,12.05-131.33,71.6c-1.13,0.91-2.74-0.41-1.85-1.51
					c14.71-18.27,59.66-70.21,133.68-92.68L220.4,116.48z"/>
			</g>
		</g>
	</g>
</g>
<g id="Layer_2">
	<g>
		<polygon class="st3" points="125.75,63.85 125.75,72.28 142.6,72.28 142.6,80.7 125.75,80.7 125.75,89.13 142.6,89.13 
			142.6,97.55 117.32,97.55 117.32,55.43 142.6,55.43 142.6,63.85 		"/>
		<polygon class="st3" points="176.3,55.43 176.3,63.85 167.87,63.85 167.87,97.55 163.66,93.34 159.45,97.55 159.45,63.85 
			151.02,63.85 151.02,55.43 		"/>
		<path class="st3" d="M108.9,63.94v33.7h-8.43V73.62c-4.02,1.13-8.77,3.22-12.64,7.09c-3.87-3.87-8.63-5.96-12.64-7.09v24.03h-8.43
			v-33.7c0,0,3.7,0,8.43,1.34c4.01,1.13,8.77,3.22,12.64,7.09c3.87-3.87,8.62-5.96,12.64-7.09C105.2,63.94,108.9,63.94,108.9,63.94z
			"/>
		<path class="st3" d="M89.24,69.12c2.76-2.26,9.54-6.77,19.66-6.77l0-3.49c0,0-13.54,2.19-19.94,9.97
			C88.8,69.03,89.05,69.28,89.24,69.12z"/>
		<path class="st3" d="M104.69,58.44c0,0-7.24,0.8-15.96,8.84c-0.13,0.12-0.33-0.05-0.23-0.2c1.71-2.45,7.39-8.48,16.18-11.63V58.44
			z"/>
		<path class="st3" d="M70.99,58.44c0,0,7.24,0.8,15.96,8.84c0.13,0.12,0.33-0.05,0.23-0.2c-1.71-2.45-7.39-8.48-16.18-11.63V58.44z
			"/>
		<path class="st3" d="M86.43,69.12c-2.76-2.26-9.54-6.77-19.66-6.77l0-3.49c0,0,13.54,2.19,19.94,9.97
			C86.87,69.03,86.62,69.28,86.43,69.12z"/>
	</g>
</g>
</svg>
